# xmcd
#
# Track frame offsets:
#	150
#	14867
#	29072
#	40765
#	51042
#	64187
#	78428
#	96553
#	112250
#	128507
#	146332
#	164737
#	177814
#	192999
#	210464
#
# Disc length: 2984 seconds
#
# Revision: 0
# Processed by: cddbd v1.5.1PL0 Copyright (c) Steve Scherf et al.
# Submitted via: dBpowerAMP V4.0
#
DISCID=dd0ba60f
DTITLE=Paul Killingly - Bush Rock
DYEAR=1900
DGENRE=
TTITLE0=Waltzing Matilda
TTITLE1=Down Under
TTITLE2=Another You
TTITLE3=Sing Sing Sing
TTITLE4=On The Prowl
TTITLE5=Boppin' The Blues
TTITLE6=Eagle Rock
TTITLE7=To Her Door
TTITLE8=Lookin' For An Echo
TTITLE9=True Blue
TTITLE10=Khe Sahn
TTITLE11=I Still Call Australia Home
TTITLE12=Home Among The Gumtrees
TTITLE13=The Man From Iron Bark
TTITLE14=The Carnival Is Over
EXTD=Bush rock
EXTT0=
EXTT1=
EXTT2=
EXTT3=
EXTT4=
EXTT5=
EXTT6=
EXTT7=
EXTT8=
EXTT9=
EXTT10=
EXTT11=
EXTT12=
EXTT13=
EXTT14=
PLAYORDER=
